<?xml version="1.0" standalone="no"?>
<!DOCTYPE svg PUBLIC "-//W3C//DTD SVG 20010904//EN"
 "http://www.w3.org/TR/2001/REC-SVG-20010904/DTD/svg10.dtd">
<svg version="1.0" xmlns="http://www.w3.org/2000/svg"
 width="839.000000pt" height="243.000000pt" viewBox="0 0 839.000000 243.000000"
 preserveAspectRatio="xMidYMid meet">
<metadata>
Créé par OUEDRAOGO Abdoul Aziz 1.0, écrit par OUEDRAOGO Abdoul Aziz 2008-2023
</metadata>
<g transform="translate(0.000000,243.000000) scale(0.100000,-0.100000)"
fill="#000000" stroke="none">
<path d="M1635 2300 c-140 -15 -154 -26 -356 -272 -98 -120 -179 -220 -179
-223 0 -3 21 10 48 28 60 43 150 82 249 109 68 19 112 22 348 26 l270 4 57 77
c31 42 69 100 83 128 33 62 25 85 -38 114 -37 16 -65 18 -227 17 -102 0 -217
-4 -255 -8z"/>
<path d="M1404 1896 c-161 -42 -278 -116 -408 -259 -109 -120 -33 -4 -635
-972 l-261 -420 352 -3 c194 -1 357 -1 363 2 5 2 93 126 195 275 102 149 253
370 335 491 229 336 601 883 609 898 6 9 -42 12 -226 12 -211 -1 -242 -3 -324
-24z"/>
<path d="M3123 1873 c-10 -4 -13 -83 -13 -350 0 -311 2 -345 16 -339 9 3 25 6
37 6 l22 0 -3 345 -3 345 -22 -1 c-12 0 -28 -3 -34 -6z"/>
<path d="M4176 1556 c-109 -40 -157 -165 -105 -273 45 -94 152 -129 254 -84
44 19 47 23 40 48 -10 42 -19 46 -56 24 -44 -27 -99 -27 -133 0 -14 11 -26 24
-26 29 0 4 56 43 125 86 69 42 125 80 125 83 0 12 -51 61 -79 76 -44 22 -101
27 -145 11z"/>
<path d="M3420 1545 c-22 -10 -36 -12 -38 -5 -4 11 -32 13 -56 4 -14 -5 -16
-31 -16 -178 0 -95 2 -175 5 -178 3 -2 18 -3 34 0 l29 4 4 123 c3 115 5 125
27 149 42 44 94 29 111 -32 5 -20 10 -86 10 -146 0 -94 2 -107 16 -102 9 3 24
6 35 6 18 0 19 8 19 128 0 136 -10 189 -38 215 -27 25 -100 30 -142 12z"/>
<path d="M3780 1549 c-20 -4 -48 -22 -67 -43 -29 -31 -33 -43 -33 -90 0 -44 5
-60 26 -85 20 -24 24 -35 15 -45 -9 -10 -7 -19 7 -36 l18 -22 40 21 c32 17 47
19 67 12 30 -12 57 -48 57 -77 0 -29 -34 -70 -65 -78 -29 -7 -94 19 -102 41
-9 22 -32 15 -47 -16 -14 -26 -14 -30 7 -49 30 -28 70 -42 123 -42 87 0 145
51 152 132 3 45 0 59 -23 92 l-26 39 26 27 c33 34 41 85 22 131 -12 29 -12 36
-1 47 8 7 14 21 14 31 0 16 -10 18 -87 18 -49 0 -104 -4 -123 -8z m110 -83
c33 -36 29 -74 -10 -109 -38 -34 -72 -31 -107 9 -30 33 -29 65 2 98 32 35 83
36 115 2z"/>
<path d="M4478 1553 l-28 -4 0 -180 0 -179 34 0 34 0 3 124 c4 115 6 126 28
150 30 32 71 34 97 5 16 -18 19 -40 22 -150 l4 -129 34 0 34 0 0 139 c0 76 -5
152 -11 170 -20 56 -108 80 -173 46 -35 -18 -36 -18 -36 0 0 8 -3 14 -7 14 -5
-1 -20 -4 -35 -6z"/>
<path d="M4863 1553 c-23 -4 -23 -6 -23 -184 l0 -179 35 0 35 0 0 185 c0 142
-3 185 -12 184 -7 -1 -23 -4 -35 -6z"/>
<path d="M5067 1553 c-2 -5 -7 -20 -11 -35 l-6 -28 59 2 c67 2 91 -11 91 -49
0 -20 -3 -24 -17 -17 -10 5 -42 9 -70 9 -46 0 -57 -4 -84 -31 -60 -60 -47
-171 25 -209 24 -13 43 -16 77 -11 24 4 66 7 92 6 l48 -1 -3 167 c-3 160 -4
166 -27 185 -18 15 -39 19 -97 19 -40 0 -75 -3 -77 -7z"/>
</g>
</svg>
