<?xml version="1.0" standalone="no"?>
<!DOCTYPE svg PUBLIC "-//W3C//DTD SVG 20010904//EN"
 "http://www.w3.org/TR/2001/REC-SVG-20010904/DTD/svg10.dtd">
<svg version="1.0" xmlns="http://www.w3.org/2000/svg"
 width="837.000000pt" height="239.000000pt" viewBox="0 0 837.000000 239.000000"
 preserveAspectRatio="xMidYMid meet">
<metadata>
Créé par OUEDRAOGO Abdoul Aziz 1.0, écrit par OUEDRAOGO Abdoul Aziz 2008-2023
</metadata>
<g transform="translate(0.000000,239.000000) scale(0.100000,-0.100000)"
fill="#000000" stroke="none">
<path d="M1595 2290 c-127 -23 -133 -28 -375 -325 -199 -244 -194 -237 -143
-195 106 89 248 148 408 170 61 8 185 11 380 8 281 -4 293 -5 370 -31 89 -29
177 -79 239 -134 40 -36 126 -137 144 -169 8 -14 31 -3 155 68 81 45 147 88
147 94 0 16 -89 140 -144 201 -115 127 -308 241 -493 290 -92 24 -114 26 -368
29 -148 1 -292 -1 -320 -6z"/>
<path d="M1415 1895 c-149 -33 -258 -93 -376 -210 -133 -130 -155 -162 -429
-600 -145 -231 -323 -516 -397 -633 -73 -117 -133 -217 -133 -222 0 -6 138
-10 364 -10 l364 0 569 832 c313 458 573 839 577 846 10 18 -456 16 -539 -3z"/>
<path d="M3097 1863 c-4 -3 -7 -163 -7 -355 0 -289 2 -348 14 -348 7 0 28 3
45 6 l31 7 0 348 0 349 -38 0 c-21 0 -42 -3 -45 -7z"/>
<path d="M3411 1534 c-24 -10 -37 -11 -41 -4 -4 7 -22 10 -41 8 l-34 -3 -3
-187 c-3 -206 -5 -198 56 -182 21 6 22 11 22 110 0 113 14 165 48 183 30 16
40 14 67 -14 24 -23 25 -29 25 -155 0 -141 -1 -139 58 -124 21 6 22 10 22 145
0 165 -11 202 -64 224 -44 19 -71 18 -115 -1z"/>
<path d="M3775 1540 c-103 -22 -149 -146 -86 -230 11 -16 18 -36 15 -44 -8
-21 13 -56 34 -56 9 0 26 7 36 15 68 51 156 -45 96 -105 -11 -11 -30 -22 -44
-26 -27 -6 -80 17 -94 43 -13 21 -39 11 -54 -22 -15 -33 -4 -52 42 -77 42 -22
127 -24 175 -4 74 31 100 146 50 220 -13 20 -20 36 -15 36 6 0 19 15 30 33 21
34 26 97 10 127 -7 13 -5 27 6 50 9 17 13 34 10 37 -8 8 -176 11 -211 3z m86
-83 c24 -19 41 -56 34 -77 -8 -25 -52 -60 -76 -60 -30 0 -71 43 -71 75 0 54
72 93 113 62z"/>
<path d="M4145 1536 c-72 -31 -123 -128 -110 -211 8 -58 55 -128 98 -148 47
-23 142 -22 187 1 30 15 35 22 33 51 -2 48 -16 57 -50 33 -44 -31 -83 -35
-122 -14 -19 10 -36 23 -38 28 -2 5 53 44 122 87 69 43 125 84 125 91 0 18
-60 73 -93 85 -38 15 -115 13 -152 -3z"/>
<path d="M4553 1536 c-18 -8 -33 -11 -33 -6 0 11 -50 13 -74 4 -14 -5 -16 -31
-16 -184 0 -107 4 -181 10 -185 5 -3 25 -3 45 1 l35 6 0 125 c0 118 1 125 25
148 31 32 58 32 84 -1 19 -24 21 -40 21 -155 0 -140 -1 -138 58 -123 23 7 23
7 20 165 -3 154 -4 159 -28 184 -32 32 -101 41 -147 21z"/>
<path d="M5079 1543 c-26 -4 -39 -25 -39 -65 0 -14 8 -16 55 -11 58 6 85 -5
85 -36 0 -15 -9 -16 -63 -13 -57 4 -66 1 -95 -23 -65 -54 -65 -155 -1 -209 24
-21 41 -26 82 -26 29 0 59 4 67 10 9 6 17 5 21 -2 4 -6 19 -7 38 -3 l31 7 0
159 c0 89 -5 169 -10 179 -17 31 -90 45 -171 33z"/>
<path d="M4837 1533 c-4 -3 -7 -89 -7 -190 0 -200 -2 -193 58 -177 22 6 22 8
22 190 l0 184 -33 0 c-19 0 -37 -3 -40 -7z"/>
<path d="M1294 863 c-48 -70 -98 -143 -111 -161 l-25 -33 28 -37 c114 -152
287 -284 463 -353 162 -65 320 -87 485 -70 222 24 430 119 587 268 l56 54
-123 120 -124 120 -57 -50 c-68 -61 -184 -123 -273 -147 -87 -23 -253 -23
-339 0 -194 52 -377 201 -456 369 l-23 49 -88 -129z"/>
<path d="M3300 897 c-98 -28 -183 -107 -221 -206 -27 -69 -30 -194 -6 -259 38
-102 117 -179 210 -207 67 -20 191 -19 250 1 45 15 47 17 47 55 0 21 -4 39 -9
39 -5 0 -28 -9 -52 -20 -59 -26 -149 -26 -209 1 -96 43 -159 132 -168 235 -16
206 188 358 372 275 55 -24 69 -18 64 25 -2 22 -12 33 -41 47 -48 24 -176 31
-237 14z"/>
<path d="M5188 903 c-17 -4 -18 -29 -18 -348 0 -189 3 -346 8 -348 4 -3 22 -2
40 0 l32 5 0 349 0 349 -22 -1 c-13 -1 -31 -3 -40 -6z"/>
<path d="M6950 475 l0 -265 35 0 35 0 0 265 0 265 -35 0 -35 0 0 -265z"/>
<path d="M5388 698 c-26 -9 -28 -14 -28 -64 0 -39 -4 -54 -14 -54 -14 0 -30
-55 -20 -71 3 -5 11 -9 19 -9 10 0 14 -28 17 -125 4 -147 11 -160 95 -171 49
-6 53 -5 64 19 16 36 5 57 -29 57 -46 0 -52 15 -52 122 l0 98 40 0 40 0 0 40
c0 40 0 40 -40 40 l-39 0 -3 62 c-2 34 -7 63 -13 64 -5 1 -22 -2 -37 -8z"/>
<path d="M7140 405 l0 -195 30 0 30 0 0 149 0 149 34 21 c44 28 87 27 114 -2
20 -21 22 -35 24 -167 l3 -145 33 -3 32 -3 0 133 c0 208 -19 249 -116 256 -54
4 -63 1 -92 -23 l-32 -27 -11 26 c-7 14 -20 26 -31 26 -17 0 -18 -12 -18 -195z"/>
<path d="M7625 586 c-139 -61 -146 -292 -11 -363 41 -22 142 -21 184 1 29 15
31 19 21 39 -7 12 -13 23 -14 25 -1 1 -15 -4 -31 -13 -129 -67 -241 77 -168
217 27 53 94 69 179 43 14 -4 24 1 33 15 12 19 10 22 -22 35 -43 18 -131 19
-171 1z"/>
<path d="M3767 576 c-76 -27 -117 -91 -117 -180 0 -90 28 -139 102 -177 41
-21 120 -25 165 -8 91 34 139 140 109 242 -32 110 -145 163 -259 123z m138
-82 c33 -22 58 -79 51 -118 -20 -103 -128 -137 -195 -60 -91 103 31 252 144
178z"/>
<path d="M4540 572 c-41 -20 -60 -53 -60 -103 0 -47 17 -68 86 -104 60 -31 75
-54 54 -80 -16 -19 -64 -19 -80 0 -18 22 -37 18 -57 -11 -16 -26 -16 -27 6
-45 47 -38 140 -36 187 4 19 17 27 36 31 70 7 61 -12 90 -82 124 -64 31 -77
56 -46 86 l21 21 29 -22 c38 -27 46 -27 65 0 14 20 14 24 -1 40 -15 17 -72 38
-103 38 -8 0 -31 -8 -50 -18z"/>
<path d="M4128 573 c-16 -4 -18 -21 -18 -182 0 -98 2 -180 5 -183 3 -3 20 -2
38 1 l32 7 5 128 c5 119 7 129 29 147 30 25 63 24 87 -2 16 -18 20 -40 22
-156 3 -114 6 -133 19 -129 8 3 24 6 35 6 19 0 19 6 16 161 l-3 161 -28 24
c-22 18 -40 24 -78 24 -28 0 -60 -5 -71 -11 -14 -8 -23 -8 -31 0 -11 11 -28
12 -59 4z"/>
<path d="M4788 569 c-15 -9 -18 -26 -18 -119 0 -150 13 -206 53 -231 38 -23
85 -24 132 -5 21 9 35 11 35 5 0 -6 17 -9 38 -7 l37 3 3 183 c2 179 2 182 -18
182 -12 0 -30 -5 -41 -10 -17 -10 -19 -22 -19 -125 0 -104 -2 -116 -22 -139
-13 -14 -30 -26 -38 -27 -66 -7 -80 25 -80 181 0 118 0 120 -22 120 -13 0 -31
-5 -40 -11z"/>
<path d="M5613 574 c-10 -4 -13 -51 -13 -183 0 -98 2 -180 5 -183 3 -3 20 -2
38 1 l32 7 0 179 0 180 -25 2 c-14 1 -31 -1 -37 -3z"/>
<path d="M5788 573 c-16 -4 -18 -21 -18 -182 0 -98 2 -180 5 -183 3 -3 20 -2
38 1 l32 7 5 128 c5 119 7 129 29 147 30 25 63 24 87 -2 16 -18 20 -40 22
-156 3 -114 6 -133 19 -129 8 3 24 6 35 6 19 0 19 6 16 161 l-3 161 -28 24
c-22 18 -40 24 -78 24 -28 0 -60 -5 -71 -11 -14 -8 -23 -8 -31 0 -11 11 -28
12 -59 4z"/>
<path d="M6211 563 c-72 -36 -94 -136 -46 -208 19 -27 23 -40 15 -50 -7 -9 -5
-19 9 -36 l19 -24 40 23 c43 24 63 22 100 -11 31 -28 29 -72 -4 -102 -41 -38
-96 -30 -137 19 l-17 21 -26 -29 c-22 -25 -23 -31 -11 -49 49 -74 207 -76 264
-3 40 51 37 151 -6 190 -18 16 -18 18 10 46 25 24 29 36 29 82 0 29 -4 60 -10
68 -5 8 -5 19 -1 25 5 5 12 20 15 33 7 22 7 22 -101 22 -80 0 -117 -5 -142
-17z m143 -84 c31 -36 28 -62 -10 -96 -33 -30 -69 -29 -99 2 -34 33 -33 77 1
104 39 31 77 27 108 -10z"/>
</g>
</svg>
